<svg xmlns="http://www.w3.org/2000/svg" xmlns:xlink="http://www.w3.org/1999/xlink" contentStyleType="text/css" data-diagram-type="CLASS" height="480px" preserveAspectRatio="none" style="width:751px;height:480px;background:#FFFFFF;" version="1.1" viewBox="0 0 751 480" width="751px" zoomAndPan="magnify"><?plantuml 1.2026.6?><defs/><g><g class="title" data-source-line="5"><text fill="#000000" font-family="sans-serif" font-size="14" font-weight="700" lengthAdjust="spacing" textLength="100.8164" x="321.9026" y="22.9951">&#22522;&#26412;&#12487;&#12540;&#12479;&#12514;&#12487;&#12523;&#65288;&#27010;&#24565;&#65289;</text></g><!--class Student--><g class="entity" data-qualified-name="Student" data-source-line="7" id="ent0001"><rect fill="#F1F1F1" height="88.8906" rx="2.5" ry="2.5" style="stroke:#181818;stroke-width:0.5;" width="110" x="7" y="210.2969"/><ellipse cx="32.2999" cy="226.2969" fill="#ADD1B2" rx="11" ry="11" style="stroke:#181818;stroke-width:1;"/><path d="M35.2687,231.9375 Q34.6905,232.2344 34.0499,232.375 Q33.4093,232.5313 32.7062,232.5313 Q30.2062,232.5313 28.878,230.8906 Q27.5655,229.2344 27.5655,226.1094 Q27.5655,222.9844 28.878,221.3281 Q30.2062,219.6719 32.7062,219.6719 Q33.4093,219.6719 34.0499,219.8281 Q34.7062,219.9844 35.2687,220.2813 L35.2687,223 Q34.6437,222.4219 34.0499,222.1563 Q33.4562,221.875 32.8312,221.875 Q31.4874,221.875 30.7999,222.9531 Q30.1124,224.0156 30.1124,226.1094 Q30.1124,228.2031 30.7999,229.2813 Q31.4874,230.3438 32.8312,230.3438 Q33.4562,230.3438 34.0499,230.0781 Q34.6437,229.7969 35.2687,229.2188 L35.2687,231.9375 Z " fill="#000000"/><text fill="#000000" font-family="sans-serif" font-size="14" lengthAdjust="spacing" textLength="55.1113" x="48.5888" y="231.1436">Student</text><line style="stroke:#181818;stroke-width:0.5;" x1="8" x2="116" y1="242.2969" y2="242.2969"/><text fill="#000000" font-family="sans-serif" font-size="14" lengthAdjust="spacing" textLength="12.7764" x="13" y="259.292">id</text><text fill="#000000" font-family="sans-serif" font-size="14" lengthAdjust="spacing" textLength="39.7031" x="13" y="275.5889">name</text><text fill="#000000" font-family="sans-serif" font-size="14" lengthAdjust="spacing" textLength="98" x="13" y="291.8857">contact_email</text></g><!--class LessonSlot--><g class="entity" data-qualified-name="LessonSlot" data-source-line="13" id="ent0002"><rect fill="#F1F1F1" height="88.8906" rx="2.5" ry="2.5" style="stroke:#181818;stroke-width:0.5;" width="107.2705" x="423.5" y="44.2969"/><ellipse cx="438.5" cy="60.2969" fill="#ADD1B2" rx="11" ry="11" style="stroke:#181818;stroke-width:1;"/><path d="M441.4688,65.9375 Q440.8906,66.2344 440.25,66.375 Q439.6094,66.5313 438.9063,66.5313 Q436.4063,66.5313 435.0781,64.8906 Q433.7656,63.2344 433.7656,60.1094 Q433.7656,56.9844 435.0781,55.3281 Q436.4063,53.6719 438.9063,53.6719 Q439.6094,53.6719 440.25,53.8281 Q440.9063,53.9844 441.4688,54.2813 L441.4688,57 Q440.8438,56.4219 440.25,56.1563 Q439.6563,55.875 439.0313,55.875 Q437.6875,55.875 437,56.9531 Q436.3125,58.0156 436.3125,60.1094 Q436.3125,62.2031 437,63.2813 Q437.6875,64.3438 439.0313,64.3438 Q439.6563,64.3438 440.25,64.0781 Q440.8438,63.7969 441.4688,63.2188 L441.4688,65.9375 Z " fill="#000000"/><text fill="#000000" font-family="sans-serif" font-size="14" lengthAdjust="spacing" textLength="75.2705" x="452.5" y="65.1436">LessonSlot</text><line style="stroke:#181818;stroke-width:0.5;" x1="424.5" x2="529.7705" y1="76.2969" y2="76.2969"/><text fill="#000000" font-family="sans-serif" font-size="14" lengthAdjust="spacing" textLength="12.7764" x="429.5" y="93.292">id</text><text fill="#000000" font-family="sans-serif" font-size="14" lengthAdjust="spacing" textLength="53.6758" x="429.5" y="109.5889">start_at</text><text fill="#000000" font-family="sans-serif" font-size="14" lengthAdjust="spacing" textLength="47.4414" x="429.5" y="125.8857">end_at</text></g><!--class SlotOccupancy--><g class="entity" data-qualified-name="SlotOccupancy" data-source-line="19" id="ent0003"><rect fill="#F1F1F1" height="72.5938" rx="2.5" ry="2.5" style="stroke:#181818;stroke-width:0.5;" width="136.4395" x="409" y="218.2969"/><ellipse cx="424" cy="234.2969" fill="#A9DCDF" rx="11" ry="11" style="stroke:#181818;stroke-width:1;"/><path d="M424.1094,229.6406 L422.9531,234.7188 L425.2813,234.7188 L424.1094,229.6406 Z M422.625,227.4063 L425.6094,227.4063 L428.9688,239.7969 L426.5156,239.7969 L425.75,236.7344 L422.4688,236.7344 L421.7188,239.7969 L419.2813,239.7969 L422.625,227.4063 Z " fill="#000000"/><text fill="#000000" font-family="sans-serif" font-size="14" font-style="italic" lengthAdjust="spacing" textLength="104.4395" x="438" y="239.1436">SlotOccupancy</text><line style="stroke:#181818;stroke-width:0.5;" x1="410" x2="544.4395" y1="250.2969" y2="250.2969"/><text fill="#000000" font-family="sans-serif" font-size="14" lengthAdjust="spacing" textLength="12.7764" x="415" y="267.292">id</text><text fill="#000000" font-family="sans-serif" font-size="14" lengthAdjust="spacing" textLength="45.0146" x="415" y="283.5889">slot_id</text></g><!--class StudentReservation--><g class="entity" data-qualified-name="StudentReservation" data-source-line="24" id="ent0004"><rect fill="#F1F1F1" height="88.8906" rx="2.5" ry="2.5" style="stroke:#181818;stroke-width:0.5;" width="170.7969" x="35.5" y="376.2969"/><ellipse cx="50.5" cy="392.2969" fill="#ADD1B2" rx="11" ry="11" style="stroke:#181818;stroke-width:1;"/><path d="M53.4688,397.9375 Q52.8906,398.2344 52.25,398.375 Q51.6094,398.5313 50.9063,398.5313 Q48.4063,398.5313 47.0781,396.8906 Q45.7656,395.2344 45.7656,392.1094 Q45.7656,388.9844 47.0781,387.3281 Q48.4063,385.6719 50.9063,385.6719 Q51.6094,385.6719 52.25,385.8281 Q52.9063,385.9844 53.4688,386.2813 L53.4688,389 Q52.8438,388.4219 52.25,388.1563 Q51.6563,387.875 51.0313,387.875 Q49.6875,387.875 49,388.9531 Q48.3125,390.0156 48.3125,392.1094 Q48.3125,394.2031 49,395.2813 Q49.6875,396.3438 51.0313,396.3438 Q51.6563,396.3438 52.25,396.0781 Q52.8438,395.7969 53.4688,395.2188 L53.4688,397.9375 Z " fill="#000000"/><text fill="#000000" font-family="sans-serif" font-size="14" lengthAdjust="spacing" textLength="138.7969" x="64.5" y="397.1436">StudentReservation</text><line style="stroke:#181818;stroke-width:0.5;" x1="36.5" x2="205.2969" y1="408.2969" y2="408.2969"/><text fill="#000000" font-family="sans-serif" font-size="14" lengthAdjust="spacing" textLength="73.2949" x="41.5" y="425.292">student_id</text><text fill="#000000" font-family="sans-serif" font-size="14" lengthAdjust="spacing" textLength="90.5557" x="41.5" y="441.5889">classification</text><text fill="#000000" font-family="sans-serif" font-size="14" lengthAdjust="spacing" textLength="43.0186" x="41.5" y="457.8857">status</text></g><!--class AdminHold--><g class="entity" data-qualified-name="AdminHold" data-source-line="30" id="ent0005"><rect fill="#F1F1F1" height="56.2969" rx="2.5" ry="2.5" style="stroke:#181818;stroke-width:0.5;" width="108.7334" x="261.5" y="392.7969"/><ellipse cx="276.5" cy="408.7969" fill="#ADD1B2" rx="11" ry="11" style="stroke:#181818;stroke-width:1;"/><path d="M279.4688,414.4375 Q278.8906,414.7344 278.25,414.875 Q277.6094,415.0313 276.9063,415.0313 Q274.4063,415.0313 273.0781,413.3906 Q271.7656,411.7344 271.7656,408.6094 Q271.7656,405.4844 273.0781,403.8281 Q274.4063,402.1719 276.9063,402.1719 Q277.6094,402.1719 278.25,402.3281 Q278.9063,402.4844 279.4688,402.7813 L279.4688,405.5 Q278.8438,404.9219 278.25,404.6563 Q277.6563,404.375 277.0313,404.375 Q275.6875,404.375 275,405.4531 Q274.3125,406.5156 274.3125,408.6094 Q274.3125,410.7031 275,411.7813 Q275.6875,412.8438 277.0313,412.8438 Q277.6563,412.8438 278.25,412.5781 Q278.8438,412.2969 279.4688,411.7188 L279.4688,414.4375 Z " fill="#000000"/><text fill="#000000" font-family="sans-serif" font-size="14" lengthAdjust="spacing" textLength="76.7334" x="290.5" y="413.6436">AdminHold</text><line style="stroke:#181818;stroke-width:0.5;" x1="262.5" x2="369.2334" y1="424.7969" y2="424.7969"/><text fill="#000000" font-family="sans-serif" font-size="14" lengthAdjust="spacing" textLength="47.6807" x="267.5" y="441.792">reason</text></g><!--class GroupLesson--><g class="entity" data-qualified-name="GroupLesson" data-source-line="34" id="ent0006"><rect fill="#F1F1F1" height="56.2969" rx="2.5" ry="2.5" style="stroke:#181818;stroke-width:0.5;" width="142.0469" x="406" y="392.7969"/><ellipse cx="429.405" cy="408.7969" fill="#ADD1B2" rx="11" ry="11" style="stroke:#181818;stroke-width:1;"/><path d="M432.3737,414.4375 Q431.7956,414.7344 431.155,414.875 Q430.5144,415.0313 429.8112,415.0313 Q427.3112,415.0313 425.9831,413.3906 Q424.6706,411.7344 424.6706,408.6094 Q424.6706,405.4844 425.9831,403.8281 Q427.3112,402.1719 429.8112,402.1719 Q430.5144,402.1719 431.155,402.3281 Q431.8112,402.4844 432.3737,402.7813 L432.3737,405.5 Q431.7487,404.9219 431.155,404.6563 Q430.5612,404.375 429.9362,404.375 Q428.5925,404.375 427.905,405.4531 Q427.2175,406.5156 427.2175,408.6094 Q427.2175,410.7031 427.905,411.7813 Q428.5925,412.8438 429.9362,412.8438 Q430.5612,412.8438 431.155,412.5781 Q431.7487,412.2969 432.3737,411.7188 L432.3737,414.4375 Z " fill="#000000"/><text fill="#000000" font-family="sans-serif" font-size="14" lengthAdjust="spacing" textLength="91.3691" x="445.2728" y="413.6436">GroupLesson</text><line style="stroke:#181818;stroke-width:0.5;" x1="407" x2="547.0469" y1="424.7969" y2="424.7969"/><text fill="#000000" font-family="sans-serif" font-size="14" lengthAdjust="spacing" textLength="130.0469" x="412" y="441.792">recurrence_source</text></g><g class="entity" data-qualified-name="GMN12" data-source-line="45" id="ent0013"><path d="M152,219.2969 L152,250.7969 L117.35,254.7969 L152,258.7969 L152,289.8281 A0,0 0 0 0 152,289.8281 L374.0747,289.8281 A0,0 0 0 0 374.0747,289.8281 L374.0747,229.2969 L364.0747,219.2969 L152,219.2969 A0,0 0 0 0 152,219.2969" fill="#FEFFDD" style="stroke:#181818;stroke-width:0.5;"/><path d="M364.0747,219.2969 L364.0747,229.2969 L374.0747,229.2969 L364.0747,219.2969" fill="#FEFFDD" style="stroke:#181818;stroke-width:0.5;"/><text fill="#000000" font-family="sans-serif" font-size="13" lengthAdjust="spacing" textLength="99.6582" x="158" y="236.3638">&#20104;&#32004;ID&#19968;&#35239;&#12399;&#20445;&#25345;&#12375;&#12394;&#12356;&#12290;</text><text fill="#000000" font-family="sans-serif" font-size="13" lengthAdjust="spacing" textLength="62.4102" x="158" y="251.4966">&#29983;&#24466;&#21029;&#20104;&#32004;&#19968;&#35239;&#12399;</text><text fill="#000000" font-family="sans-serif" font-size="13" lengthAdjust="spacing" textLength="201.0747" x="158" y="266.6294">StudentReservation.student_id</text><text fill="#000000" font-family="sans-serif" font-size="13" lengthAdjust="spacing" textLength="101.918" x="158" y="281.7622">&#12363;&#12425;Query&#12391;&#23566;&#20986;&#12377;&#12427;&#12290;</text></g><g class="entity" data-qualified-name="GMN15" data-source-line="52" id="ent0016"><path d="M583,393.2969 L583,448.6953 A0,0 0 0 0 583,448.6953 L736.6216,448.6953 A0,0 0 0 0 736.6216,448.6953 L736.6216,403.2969 L726.6216,393.2969 L634.29,393.2969 L516.71,291.3869 L626.29,393.2969 L583,393.2969 A0,0 0 0 0 583,393.2969" fill="#FEFFDD" style="stroke:#181818;stroke-width:0.5;"/><path d="M726.6216,393.2969 L726.6216,403.2969 L736.6216,403.2969 L726.6216,393.2969" fill="#FEFFDD" style="stroke:#181818;stroke-width:0.5;"/><text fill="#000000" font-family="sans-serif" font-size="13" lengthAdjust="spacing" textLength="70.2114" x="589" y="410.3638">&#27010;&#24565;&#19978;&#12398;&#20849;&#36890;&#27010;&#24565;&#12290;</text><text fill="#000000" font-family="sans-serif" font-size="13" lengthAdjust="spacing" textLength="117.019" x="589" y="425.4966">&#29420;&#31435;&#12486;&#12540;&#12502;&#12523;&#12392;&#12375;&#12390;&#23455;&#35013;&#12377;&#12427;&#12363;&#12399;</text><text fill="#000000" font-family="sans-serif" font-size="13" lengthAdjust="spacing" textLength="132.6216" x="589" y="440.6294">&#24460;&#32154;&#12398;&#12487;&#12540;&#12479;&#12514;&#12487;&#12523;&#26908;&#35342;&#12391;&#30906;&#23450;&#12377;&#12427;&#12290;</text></g><!--link Student to StudentReservation--><g class="link" data-entity-1="ent0001" data-entity-2="ent0004" data-link-type="association" data-source-line="38" id="lnk7"><path codeLine="38" d="M77.66,299.3169 C86.19,323.0369 96.72,352.3169 105.27,376.0769" fill="none" id="Student-StudentReservation" style="stroke:#181818;stroke-width:1;"/><polygon fill="#000000" points="100.6923,342.5682,100.3964,333.0622,94.8654,335.0517,100.6923,342.5682" style="stroke:#000000;stroke-width:1;stroke-linejoin:miter;stroke-miterlimit:10;"/><text fill="#000000" font-family="sans-serif" font-size="13" lengthAdjust="spacing" textLength="38.4604" x="108" y="342.3638">books</text><text fill="#000000" font-family="sans-serif" font-size="13" lengthAdjust="spacing" textLength="8.271" x="71.4662" y="319.3679">1</text><text fill="#000000" font-family="sans-serif" font-size="13" lengthAdjust="spacing" textLength="23.0356" x="78.1187" y="365.1661">0..*</text></g><!--link LessonSlot to SlotOccupancy--><g class="link" data-entity-1="ent0002" data-entity-2="ent0003" data-link-type="association" data-source-line="39" id="lnk8"><path codeLine="39" d="M477,133.3169 C477,159.7869 477,193.1869 477,218.0969" fill="none" id="LessonSlot-SlotOccupancy" style="stroke:#181818;stroke-width:1;"/><polygon fill="#000000" points="482,176.8633,484.9389,167.8182,479.0611,167.8182,482,176.8633" style="stroke:#000000;stroke-width:1;stroke-linejoin:miter;stroke-miterlimit:10;"/><text fill="#000000" font-family="sans-serif" font-size="13" lengthAdjust="spacing" textLength="78.6792" x="491" y="176.3638">occupied by</text><text fill="#000000" font-family="sans-serif" font-size="13" lengthAdjust="spacing" textLength="8.271" x="468.3875" y="153.3679">1</text><text fill="#000000" font-family="sans-serif" font-size="13" lengthAdjust="spacing" textLength="24.8066" x="450.8952" y="207.3387">0..1</text></g><!--reverse link SlotOccupancy to StudentReservation--><g class="link" data-entity-1="ent0003" data-entity-2="ent0004" data-link-type="extension" data-source-line="40" id="lnk9"><path codeLine="40" d="M392.8378,299.0316 C387.1178,301.8716 397.53,296.6569 392,299.2969 C330.56,328.6569 260.27,359.8369 206.68,383.1269" fill="none" id="SlotOccupancy-backto-StudentReservation" style="stroke:#181818;stroke-width:1;"/><polygon fill="none" points="408.96,291.0269,390.1696,293.6575,395.5061,304.4056,408.96,291.0269" style="stroke:#181818;stroke-width:1;stroke-linejoin:miter;stroke-miterlimit:10;"/></g><!--reverse link SlotOccupancy to AdminHold--><g class="link" data-entity-1="ent0003" data-entity-2="ent0005" data-link-type="extension" data-source-line="41" id="lnk10"><path codeLine="41" d="M429.4566,304.2283 C399.5766,334.6483 369.84,364.9569 342.64,392.6569" fill="none" id="SlotOccupancy-backto-AdminHold" style="stroke:#181818;stroke-width:1;"/><polygon fill="none" points="442.07,291.3869,425.1761,300.0238,433.737,308.4327,442.07,291.3869" style="stroke:#181818;stroke-width:1;stroke-linejoin:miter;stroke-miterlimit:10;"/></g><!--reverse link SlotOccupancy to GroupLesson--><g class="link" data-entity-1="ent0003" data-entity-2="ent0006" data-link-type="extension" data-source-line="42" id="lnk11"><path codeLine="42" d="M477,309.3869 C477,339.8069 477,364.9569 477,392.6569" fill="none" id="SlotOccupancy-backto-GroupLesson" style="stroke:#181818;stroke-width:1;"/><polygon fill="none" points="477,291.3869,471,309.3869,483,309.3869,477,291.3869" style="stroke:#181818;stroke-width:1;stroke-linejoin:miter;stroke-miterlimit:10;"/></g><?plantuml-src RLDHQzDG57xFhxZqKLZPNeS80q47WkX-GBbDpknbJMwvzqIeEcZQpNLsx45aOfaKDks66rL1PPIo_fZRjFLfVy6JfDrIsvVav9xl-yxt9IS5uG1p0GlIqLOXUj082YIMIw0jlIMy4bVSPNQHQxs6g4JUHrYtfRSXNW5RjYmKM0GMjhh3uqjJspErdgdsJUqahYzkUlLXknhsVz_qzYqhLc4Rw3lW8NjjCIOSkdZS1RgHA78RS-1oKRIsf_0de3MDAyeKGoDNcED89NXEL12SvpKg4c2JCSHuQjj-YNjsEKMbunnLs__PUGuQr4kEGdenM2V7kPWK8yMciED-OW1zVIUovhZ2UooBJinLmCdoNVUHadufoJ7fsxvIuDcGqz9NDaJGwMl9h6JOqXBBB6UpzpABtAsol9HRcZsmKgycnQ9gDligar4jm67vCj5ck_VV46z-p2BKRSf5pLH8o_8a0bFYHG6Pt9ogK_91jpxwjRF-S71L6RVFJF1zqFyyF0XCyD44tqomOofLGeq-jCBhzs7zQmA_1LDhtcXsvakPe66g-yzyK6KJd8K_3iEzhWa-cMeZagPbOP6rYS6yH9Hkx32TXsIIfHrSlJD19zpz-RVIJ4uc_XgNeuk6gRsDjhrsH7jkWlCuGplijCQdkvE9v2Ks7LuVZFuqIMh-1nb-EHwV7vBLqKatx3GNMFq7?></g></svg>